<svg width="298" height="86" viewBox="0 0 298 86" fill="none" xmlns="http://www.w3.org/2000/svg">
    <path d="M57.5625 51.0625H32.625V35.1875H53.5V28.625H32.625V12.625H56.6875V6H26.125V57.6875H57.5625V51.0625ZM47.625 0.375C51.8333 0.375 55.6458 1 59.0625 2.25C62.4792 3.5 65.375 5.20833 67.75 7.375C70.1667 9.54167 72.0208 12.0833 73.3125 15C74.6042 17.875 75.25 20.9375 75.25 24.1875V62.1875C75.25 65.4375 74.6042 68.5208 73.3125 71.4375C72.0208 74.3125 70.1667 76.8333 67.75 79C65.375 81.1667 62.4792 82.875 59.0625 84.125C55.6458 85.375 51.8333 86 47.625 86H28.375C24.1667 86 20.3542 85.375 16.9375 84.125C13.5208 82.875 10.6042 81.1667 8.1875 79C5.8125 76.8333 3.97917 74.3125 2.6875 71.4375C1.39583 68.5208 0.75 65.4375 0.75 62.1875V24.1875C0.75 20.9375 1.39583 17.875 2.6875 15C3.97917 12.0833 5.8125 9.54167 8.1875 7.375C10.6042 5.20833 13.5208 3.5 16.9375 2.25C20.3542 1 24.1667 0.375 28.375 0.375H47.625Z" fill="#6E63E6"/>
    <path d="M121.625 0.375C125.833 0.375 129.646 1 133.062 2.25C136.479 3.5 139.375 5.20833 141.75 7.375C144.167 9.54167 146.021 12.0833 147.312 15C148.604 17.875 149.25 20.9375 149.25 24.1875V62.1875C149.25 65.4375 148.604 68.5208 147.312 71.4375C146.021 74.3125 144.167 76.8333 141.75 79C139.375 81.1667 136.479 82.875 133.062 84.125C129.646 85.375 125.833 86 121.625 86H102.375C98.1667 86 94.3542 85.375 90.9375 84.125C87.5208 82.875 84.6042 81.1667 82.1875 79C79.8125 76.8333 77.9792 74.3125 76.6875 71.4375C75.3958 68.5208 74.75 65.4375 74.75 62.1875V24.1875C74.75 20.9375 75.3958 17.875 76.6875 15C77.9792 12.0833 79.8125 9.54167 82.1875 7.375C84.6042 5.20833 87.5208 3.5 90.9375 2.25C94.3542 1 98.1667 0.375 102.375 0.375H121.625ZM134.625 16.125L133.75 10.875L129.812 6.875L123.375 6H95.5V57.6875H123.375L129.812 56.9375L133.75 53L134.625 47.625V16.125ZM127.125 50.4375L123 51.0625H102V12.625H123L127.375 13.3125L128 17V46.9375L127.125 50.4375Z" fill="#6E63E6"/>
    <path d="M195.625 0.375C199.833 0.375 203.646 1 207.062 2.25C210.479 3.5 213.375 5.20833 215.75 7.375C218.167 9.54167 220.021 12.0833 221.312 15C222.604 17.875 223.25 20.9375 223.25 24.1875V62.1875C223.25 65.4375 222.604 68.5208 221.312 71.4375C220.021 74.3125 218.167 76.8333 215.75 79C213.375 81.1667 210.479 82.875 207.062 84.125C203.646 85.375 199.833 86 195.625 86H176.375C172.167 86 168.354 85.375 164.938 84.125C161.521 82.875 158.604 81.1667 156.188 79C153.812 76.8333 151.979 74.3125 150.688 71.4375C149.396 68.5208 148.75 65.4375 148.75 62.1875V24.1875C148.75 20.9375 149.396 17.875 150.688 15C151.979 12.0833 153.812 9.54167 156.188 7.375C158.604 5.20833 161.521 3.5 164.938 2.25C168.354 1 172.167 0.375 176.375 0.375H195.625ZM208.125 6H201.5V46.9375C201.417 47.4792 201.271 48.0625 201.062 48.6875C200.896 49.3125 200.729 49.8958 200.562 50.4375L196.5 51.0625H180.5L176.375 50.4375L175.5 46.6875V6H169V47.625L169.75 53L173.812 56.9375L180.125 57.6875H196.875L203.25 56.9375L207.25 53L208.125 47.625V6Z" fill="#6E63E6"/>
    <path d="M263.875 30.6875L285.375 9.4375L280.875 4.1875L255.125 29.6875V6H248.5V57.6875H255.125V38.125C255.833 37.5417 256.438 37.0208 256.938 36.5625C257.479 36.0625 258.083 35.5208 258.75 34.9375L279.188 58.875L284.562 54.25L263.875 30.6875ZM269.625 0.375C273.833 0.375 277.646 1 281.062 2.25C284.479 3.5 287.375 5.20833 289.75 7.375C292.167 9.54167 294.021 12.0833 295.312 15C296.604 17.875 297.25 20.9375 297.25 24.1875V62.1875C297.25 65.4375 296.604 68.5208 295.312 71.4375C294.021 74.3125 292.167 76.8333 289.75 79C287.375 81.1667 284.479 82.875 281.062 84.125C277.646 85.375 273.833 86 269.625 86H250.375C246.167 86 242.354 85.375 238.938 84.125C235.521 82.875 232.604 81.1667 230.188 79C227.812 76.8333 225.979 74.3125 224.688 71.4375C223.396 68.5208 222.75 65.4375 222.75 62.1875V24.1875C222.75 20.9375 223.396 17.875 224.688 15C225.979 12.0833 227.812 9.54167 230.188 7.375C232.604 5.20833 235.521 3.5 238.938 2.25C242.354 1 246.167 0.375 250.375 0.375H269.625Z" fill="#6E63E6"/>
</svg>
