<svg width="516" height="115" viewBox="0 0 516 115" fill="none" xmlns="http://www.w3.org/2000/svg">
    <g clip-path="url(#clip0_5_65)">
        <rect width="189" height="115" rx="9" fill="white"/>
        <g clip-path="url(#clip1_5_65)">
            <path d="M135.434 36.0597C135.807 35.9882 136.193 35.9882 136.567 36.0597L160.674 40.8253C162.024 41.0874 163 42.2669 163 43.6251C163 44.9833 162.024 46.1628 160.674 46.4249L151.429 48.2597V55.0626C151.429 63.4858 144.522 70.3126 136 70.3126C127.478 70.3126 120.572 63.4858 120.572 55.0626V48.2597L114.786 47.1159V54.872L116.678 64.2126C116.787 64.7726 116.642 65.3563 116.28 65.7972C115.919 66.238 115.364 66.5001 114.786 66.5001H110.929C110.35 66.5001 109.808 66.2499 109.434 65.7972C109.06 65.3444 108.916 64.7726 109.036 64.2126L110.929 54.872V46.3177C109.784 45.9245 109 44.8522 109 43.6251C109 42.2669 109.976 41.0874 111.326 40.8253L135.434 36.0597ZM122.488 75.0425C123.754 74.6374 125.116 75.0901 126.032 76.0552L134.59 85.0503C135.349 85.8485 136.639 85.8485 137.398 85.0503L145.956 76.0552C146.872 75.0901 148.234 74.6374 149.5 75.0425C157.335 77.5325 163 84.7763 163 93.3425C163 95.3679 161.337 97.0001 159.3 97.0001H112.701C110.664 97.0001 109 95.3559 109 93.3425C109 84.7763 114.665 77.5325 122.488 75.0425Z" fill="#9D94FF" fill-opacity="0.79"/>
        </g>
        <g clip-path="url(#clip2_5_65)">
            <path d="M60.4336 36.0597C60.8073 35.9882 61.193 35.9882 61.5666 36.0597L85.6738 40.8253C87.0238 41.0874 88.0001 42.2669 88.0001 43.6251C88.0001 44.9833 87.0238 46.1628 85.6738 46.4249L76.4287 48.2597V55.0626C76.4287 63.4858 69.522 70.3126 61.0001 70.3126C52.4782 70.3126 45.5715 63.4858 45.5715 55.0626V48.2597L39.7858 47.1159V54.872L41.6782 64.2126C41.7867 64.7726 41.6421 65.3563 41.2805 65.7972C40.9189 66.238 40.3644 66.5001 39.7858 66.5001H35.9287C35.3501 66.5001 34.8077 66.2499 34.434 65.7972C34.0604 65.3444 33.9157 64.7726 34.0363 64.2126L35.9287 54.872V46.3177C34.7836 45.9245 34.0001 44.8522 34.0001 43.6251C34.0001 42.2669 34.9765 41.0874 36.3265 40.8253L60.4336 36.0597ZM47.4881 75.0425C48.7537 74.6374 50.1157 75.0901 51.0318 76.0552L59.5899 85.0503C60.3492 85.8485 61.639 85.8485 62.3983 85.0503L70.9564 76.0552C71.8724 75.0901 73.2345 74.6374 74.5001 75.0425C82.3349 77.5325 88.0001 84.7763 88.0001 93.3425C88.0001 95.3679 86.3367 97.0001 84.2997 97.0001H37.7006C35.6635 97.0001 34.0001 95.3559 34.0001 93.3425C34.0001 84.7763 39.6653 77.5325 47.4881 75.0425Z" fill="#9D94FF" fill-opacity="0.79"/>
        </g>
        <g clip-path="url(#clip3_5_65)">
            <path d="M93.8181 23.0723C94.2678 22.9855 94.7321 22.9855 95.1819 23.0723L124.2 28.8535C125.825 29.1715 127 30.6023 127 32.25C127 33.8977 125.825 35.3285 124.2 35.6465L113.071 37.8723V46.125C113.071 56.3434 104.758 64.625 94.5 64.625C84.2422 64.625 75.9286 56.3434 75.9286 46.125V37.8723L68.9643 36.4848V45.8937L71.2422 57.225C71.3728 57.9043 71.1986 58.6125 70.7634 59.1473C70.3281 59.682 69.6607 60 68.9643 60H64.3214C63.625 60 62.9721 59.6965 62.5223 59.1473C62.0725 58.598 61.8984 57.9043 62.0435 57.225L64.3214 45.8937V35.5164C62.9431 35.0395 62 33.7387 62 32.25C62 30.6023 63.1752 29.1715 64.8002 28.8535L93.8181 23.0723ZM78.2355 70.3629C79.7589 69.8715 81.3984 70.4207 82.5011 71.5914L92.8024 82.5035C93.7165 83.4719 95.269 83.4719 96.183 82.5035L106.484 71.5914C107.587 70.4207 109.227 69.8715 110.75 70.3629C120.181 73.3836 127 82.1711 127 92.5629C127 95.0199 124.998 97 122.546 97H66.4542C64.0022 97 62 95.0055 62 92.5629C62 82.1711 68.8192 73.3836 78.2355 70.3629Z" fill="url(#paint0_linear_5_65)"/>
        </g>
    </g>
    <path d="M275.562 65.0625H250.625V49.1875H271.5V42.625H250.625V26.625H274.688V20H244.125V71.6875H275.562V65.0625ZM265.625 14.375C269.833 14.375 273.646 15 277.062 16.25C280.479 17.5 283.375 19.2083 285.75 21.375C288.167 23.5417 290.021 26.0833 291.312 29C292.604 31.875 293.25 34.9375 293.25 38.1875V76.1875C293.25 79.4375 292.604 82.5208 291.312 85.4375C290.021 88.3125 288.167 90.8333 285.75 93C283.375 95.1667 280.479 96.875 277.062 98.125C273.646 99.375 269.833 100 265.625 100H246.375C242.167 100 238.354 99.375 234.938 98.125C231.521 96.875 228.604 95.1667 226.188 93C223.812 90.8333 221.979 88.3125 220.688 85.4375C219.396 82.5208 218.75 79.4375 218.75 76.1875V38.1875C218.75 34.9375 219.396 31.875 220.688 29C221.979 26.0833 223.812 23.5417 226.188 21.375C228.604 19.2083 231.521 17.5 234.938 16.25C238.354 15 242.167 14.375 246.375 14.375H265.625Z" fill="#6E63E6"/>
    <path d="M339.625 14.375C343.833 14.375 347.646 15 351.062 16.25C354.479 17.5 357.375 19.2083 359.75 21.375C362.167 23.5417 364.021 26.0833 365.312 29C366.604 31.875 367.25 34.9375 367.25 38.1875V76.1875C367.25 79.4375 366.604 82.5208 365.312 85.4375C364.021 88.3125 362.167 90.8333 359.75 93C357.375 95.1667 354.479 96.875 351.062 98.125C347.646 99.375 343.833 100 339.625 100H320.375C316.167 100 312.354 99.375 308.938 98.125C305.521 96.875 302.604 95.1667 300.188 93C297.812 90.8333 295.979 88.3125 294.688 85.4375C293.396 82.5208 292.75 79.4375 292.75 76.1875V38.1875C292.75 34.9375 293.396 31.875 294.688 29C295.979 26.0833 297.812 23.5417 300.188 21.375C302.604 19.2083 305.521 17.5 308.938 16.25C312.354 15 316.167 14.375 320.375 14.375H339.625ZM352.625 30.125L351.75 24.875L347.812 20.875L341.375 20H313.5V71.6875H341.375L347.812 70.9375L351.75 67L352.625 61.625V30.125ZM345.125 64.4375L341 65.0625H320V26.625H341L345.375 27.3125L346 31V60.9375L345.125 64.4375Z" fill="#6E63E6"/>
    <path d="M413.625 14.375C417.833 14.375 421.646 15 425.062 16.25C428.479 17.5 431.375 19.2083 433.75 21.375C436.167 23.5417 438.021 26.0833 439.312 29C440.604 31.875 441.25 34.9375 441.25 38.1875V76.1875C441.25 79.4375 440.604 82.5208 439.312 85.4375C438.021 88.3125 436.167 90.8333 433.75 93C431.375 95.1667 428.479 96.875 425.062 98.125C421.646 99.375 417.833 100 413.625 100H394.375C390.167 100 386.354 99.375 382.938 98.125C379.521 96.875 376.604 95.1667 374.188 93C371.812 90.8333 369.979 88.3125 368.688 85.4375C367.396 82.5208 366.75 79.4375 366.75 76.1875V38.1875C366.75 34.9375 367.396 31.875 368.688 29C369.979 26.0833 371.812 23.5417 374.188 21.375C376.604 19.2083 379.521 17.5 382.938 16.25C386.354 15 390.167 14.375 394.375 14.375H413.625ZM426.125 20H419.5V60.9375C419.417 61.4792 419.271 62.0625 419.062 62.6875C418.896 63.3125 418.729 63.8958 418.562 64.4375L414.5 65.0625H398.5L394.375 64.4375L393.5 60.6875V20H387V61.625L387.75 67L391.812 70.9375L398.125 71.6875H414.875L421.25 70.9375L425.25 67L426.125 61.625V20Z" fill="#6E63E6"/>
    <path d="M481.875 44.6875L503.375 23.4375L498.875 18.1875L473.125 43.6875V20H466.5V71.6875H473.125V52.125C473.833 51.5417 474.438 51.0208 474.938 50.5625C475.479 50.0625 476.083 49.5208 476.75 48.9375L497.188 72.875L502.562 68.25L481.875 44.6875ZM487.625 14.375C491.833 14.375 495.646 15 499.062 16.25C502.479 17.5 505.375 19.2083 507.75 21.375C510.167 23.5417 512.021 26.0833 513.312 29C514.604 31.875 515.25 34.9375 515.25 38.1875V76.1875C515.25 79.4375 514.604 82.5208 513.312 85.4375C512.021 88.3125 510.167 90.8333 507.75 93C505.375 95.1667 502.479 96.875 499.062 98.125C495.646 99.375 491.833 100 487.625 100H468.375C464.167 100 460.354 99.375 456.938 98.125C453.521 96.875 450.604 95.1667 448.188 93C445.812 90.8333 443.979 88.3125 442.688 85.4375C441.396 82.5208 440.75 79.4375 440.75 76.1875V38.1875C440.75 34.9375 441.396 31.875 442.688 29C443.979 26.0833 445.812 23.5417 448.188 21.375C450.604 19.2083 453.521 17.5 456.938 16.25C460.354 15 464.167 14.375 468.375 14.375H487.625Z" fill="#6E63E6"/>
    <defs>
        <linearGradient id="paint0_linear_5_65" x1="94.4968" y1="23.0072" x2="94.4968" y2="97" gradientUnits="userSpaceOnUse">
            <stop stop-color="#6E63E6"/>
            <stop offset="1" stop-color="#4C3DE0"/>
        </linearGradient>
        <clipPath id="clip0_5_65">
            <rect width="189" height="115" fill="white"/>
        </clipPath>
        <clipPath id="clip1_5_65">
            <rect width="54" height="61" fill="white" transform="translate(109 36)"/>
        </clipPath>
        <clipPath id="clip2_5_65">
            <rect width="54" height="61" fill="white" transform="translate(34 36)"/>
        </clipPath>
        <clipPath id="clip3_5_65">
            <rect width="65" height="74" fill="white" transform="translate(62 23)"/>
        </clipPath>
    </defs>
</svg>
